<?xml version="1.0" encoding="UTF-8"?><svg width="24px" height="24px" viewBox="0 0 24 24" stroke-width="1.5" fill="none" xmlns="http://www.w3.org/2000/svg" color="#000000"><path d="M11.7 1.173a.6.6 0 01.6 0l8.926 5.154a.6.6 0 01.3.52v10.307a.6.6 0 01-.3.52L12.3 22.826a.6.6 0 01-.6 0l-8.926-5.154a.6.6 0 01-.3-.52V6.847a.6.6 0 01.3-.52L11.7 1.174z" stroke="#000000" stroke-width="1.5" stroke-linecap="round" stroke-linejoin="round"></path><path d="M17 15H7l5-8 5 8z" stroke="#000000" stroke-width="1.5" stroke-linecap="round" stroke-linejoin="round"></path><path d="M2.5 6.5L12 7M2.5 6.5L7 15M21.5 6.5L17 15M21.5 6.5L12 7V1M21.5 17.5L17 15M2.5 17.5L7 15M7 15l5 8 5-8" stroke="#000000" stroke-width="1.5" stroke-linejoin="round"></path></svg>