<?xml version="1.0" encoding="utf-8"?>
<!-- Generator: Adobe Illustrator 26.2.1, SVG Export Plug-In . SVG Version: 6.00 Build 0)  -->
<svg version="1.1" id="Layer_1" xmlns="http://www.w3.org/2000/svg" xmlns:xlink="http://www.w3.org/1999/xlink" x="0px" y="0px"
	 viewBox="0 0 1440 1440" style="enable-background:new 0 0 1440 1440;" xml:space="preserve">
<path d="M1162.39,373.87l-272.3-157.22l-44.63-25.82l-46.88-27.03c-48.47-28.01-108.69-28.01-157.16,0L277.55,373.87
	C229.14,401.82,199,454,199,509.96V930.1c0,55.96,30.14,108.08,78.55,136.09l363.87,210.07c24.29,13.94,51.39,20.95,78.55,20.95
	c27.22,0,54.37-7,78.61-20.95l32.45-18.69l44.63-25.82l286.73-165.56c48.53-28.01,78.61-80.13,78.61-136.09V509.96
	C1241,454,1210.92,401.82,1162.39,373.87z M837.67,549.54l-106.19,93.1l106.19,93.04v128.48L658.23,706.88l-73.31-64.24l73.31-64.24
	l179.44-157.28V549.54z M536.39,420.82c-34.71,20.03-56.26,57.36-56.26,97.48v420.14c0,40.07,21.55,77.39,56.26,97.42l294.64,170.12
	l-44.57,25.76l-10.17,5.91c-34.71,20.03-77.82,20.03-112.58,0l-363.81-210.07c-34.71-20.03-56.26-57.42-56.26-97.48V509.96
	c0-40.06,21.56-77.45,56.26-97.48l363.81-210.07c17.41-10.05,36.84-15.04,56.26-15.04c19.48,0,38.97,4.99,56.32,15.04l24.6,14.25
	l44.57,25.7L536.39,420.82z M1070.14,861.66L890.7,1018.94V890.46l106.19-93.1L890.7,704.32V575.84l179.44,157.34l73.31,64.18
	L1070.14,861.66z"/>
</svg>
